<svg xmlns="http://www.w3.org/2000/svg" height="24" viewBox="0 -960 960 960" width="24"><path d="M680.596-274.957q25.643 0 43.643-18.013t18-43.745q0-25.733-18.118-43.629-18.117-17.895-43.76-17.895-25.644 0-43.644 18.013t-18 43.746q0 25.733 18.118 43.628t43.761 17.895Zm.066 120q31.816 0 58.077-13.88T782-206.717q-23-14-48.803-21.12-25.803-7.12-52.719-7.12t-52.838 7.12q-25.923 7.12-48.923 21.12 17 24 43.565 37.88 26.565 13.88 58.38 13.88Zm-.671 102.174q-92.937 0-158.431-65.454-65.495-65.454-65.495-158.321 0-92.866 65.504-158.361 65.504-65.494 158.44-65.494 92.937 0 158.431 65.494 65.495 65.495 65.495 158.361 0 92.867-65.504 158.321t-158.44 65.454Zm-205.024 9.37Q323.804-79.37 224.609-215.072q-99.196-135.702-99.196-300.967v-268.108l353.826-133.201 355.348 133.196v246.609q-33.196-21.435-74.174-32.153-40.978-10.717-80.413-10.717-125.916 0-214.925 89.009-89.01 89.01-89.01 214.926 0 65.956 27.816 127.054 27.815 61.098 79.206 103.62-2.152.956-4.185 1.434-2.032.479-3.935.957Z"/></svg>