<svg xmlns="http://www.w3.org/2000/svg" height="24" viewBox="0 -960 960 960" width="24"><path d="M264.614-59.283q-37.266 0-63.788-26.538t-26.522-63.804q0-37.266 26.539-63.788 26.538-26.522 63.804-26.522 37.266 0 63.788 26.538t26.522 63.805q0 37.266-26.539 63.788-26.538 26.521-63.804 26.521Zm420.514 0q-37.367 0-63.769-26.538t-26.402-63.804q0-37.266 26.473-63.788t63.649-26.522q37.486 0 63.888 26.538 26.403 26.538 26.403 63.805 0 37.266-26.438 63.788-26.438 26.521-63.804 26.521ZM196.544-827.522h627.087q26.418 0 40.481 24.087 14.062 24.087.149 48.914L710.646-478.949q-12.255 23.319-34.504 37.058-22.249 13.739-48.707 13.739H321.261l-31.522 56h490.978v109.348H264.63q-54.434 0-80.532-47.337t-1.381-93.294l50-92.565L90.63-798.174H3.914v-109.348h154.631l38 80Z"/></svg>