<svg xmlns="http://www.w3.org/2000/svg" height="48" viewBox="0 -960 960 960" width="48"><path d="M466.423-300.577h30.192v-219.308h-30.192v219.308Zm13.507-272.962q9.339 0 15.32-5.613t5.981-15.281q0-10.325-5.896-15.946Q489.44-616 480.123-616q-10.661 0-16.008 5.516-5.346 5.516-5.346 15.59 0 9.994 5.911 15.675 5.91 5.68 15.25 5.68Zm.583 452.385q-74.964 0-140.016-28.386-65.051-28.386-113.889-77.19-48.838-48.805-77.146-113.68t-28.308-139.843q0-74.28 28.386-139.79 28.386-65.511 77.19-114.099 48.805-48.588 113.68-76.646t139.843-28.058q74.28 0 139.796 28.254 65.517 28.254 114.099 76.691 48.582 48.436 76.64 113.855 28.058 65.418 28.058 139.533 0 74.964-28.136 140.016-28.136 65.051-76.69 113.704-48.555 48.654-113.974 77.147-65.418 28.492-139.533 28.492Zm-.071-30.192q136.212 0 232.212-96.057t96-233.039q0-136.212-95.754-232.212t-232.842-96q-136.481 0-232.596 95.754-96.116 95.754-96.116 232.842 0 136.481 96.057 232.596 96.057 96.116 233.039 96.116ZM480-480Z"/></svg>